<svg width="198" height="198" xmlns="http://www.w3.org/2000/svg" xmlns:xlink="http://www.w3.org/1999/xlink" xml:space="preserve" overflow="hidden"><g transform="translate(-491 -249)"><path d="M540.5 273.75C545.45 273.75 548.75 277.05 548.75 282L548.75 289.425C557.825 285.3 569.375 282 581.75 282 606.5 282 606.5 298.5 623 298.5 647.75 298.5 656 282 656 282L656 348C656 348 647.75 364.5 623 364.5 598.25 364.5 598.25 348 581.75 348 557 348 548.75 364.5 548.75 364.5L548.75 422.25 532.25 422.25 532.25 282C532.25 277.05 535.55 273.75 540.5 273.75M548.75 308.4 548.75 343.05C548.75 343.05 565.25 330.675 581.75 330.675 598.25 330.675 606.5 347.175 623 347.175 639.5 347.175 639.5 338.925 639.5 338.925L639.5 310.875C639.5 310.875 631.25 315 623 315 606.5 315 598.25 298.5 581.75 298.5 565.25 298.5 548.75 308.4 548.75 308.4M614.75 397.5 614.75 414 680.75 414 680.75 397.5 614.75 397.5Z" stroke="#4EA72E" stroke-width="1.34011" fill="#FFFFFF"/></g></svg>