<svg width="146" height="145" xmlns="http://www.w3.org/2000/svg" xmlns:xlink="http://www.w3.org/1999/xlink" xml:space="preserve" overflow="hidden"><g transform="translate(-246 -190)"><path d="M72.5 39.2708C80.8417 39.2708 87.6042 46.0332 87.6042 54.375 87.6042 62.7167 80.8417 69.4792 72.5 69.4792 64.1583 69.4792 57.3958 62.7167 57.3958 54.375 57.3958 46.0332 64.1583 39.2708 72.5 39.2708M72.5 12.0833C95.8571 12.0833 114.792 31.018 114.792 54.375 114.792 86.0938 72.5 132.917 72.5 132.917 72.5 132.917 30.2083 86.0938 30.2083 54.375 30.2083 31.018 49.143 12.0833 72.5 12.0833M72.5 24.1667C55.8164 24.1667 42.2917 37.6914 42.2917 54.375 42.2917 60.4167 42.2917 72.5 72.5 113.04 102.708 72.5 102.708 60.4167 102.708 54.375 102.708 37.6914 89.1835 24.1667 72.5 24.1667Z" stroke="#4EA72E" stroke-width="1.33334" fill="#FFFFFF" transform="matrix(1.0069 0 0 1 246 190)"/></g></svg>