<svg width="64" height="64" xmlns="http://www.w3.org/2000/svg" xmlns:xlink="http://www.w3.org/1999/xlink" xml:space="preserve" overflow="hidden"><g transform="translate(-576 -280)"><path d="M626.667 325.333 626.667 330.667 594.667 330.667 594.667 325.333C594.667 325.333 594.667 314.667 610.667 314.667 626.667 314.667 626.667 325.333 626.667 325.333M618.667 301.333C618.667 296.915 615.085 293.333 610.667 293.333 606.248 293.333 602.667 296.915 602.667 301.333 602.667 305.752 606.248 309.333 610.667 309.333 615.085 309.333 618.667 305.752 618.667 301.333M627.2 314.827C630.145 317.543 631.874 321.329 632 325.333L632 330.667 640 330.667 640 325.333C640 325.333 640 316.133 627.2 314.827M624 293.333C623.194 293.334 622.394 293.46 621.627 293.707 624.822 298.289 624.822 304.378 621.627 308.96 622.394 309.207 623.194 309.333 624 309.333 628.418 309.333 632 305.752 632 301.333 632 296.915 628.418 293.333 624 293.333M597.333 306.667 576 306.667 576 312 597.333 312Z" stroke="#4EA72E" stroke-width="1.33333" fill="#FFFFFF"/></g></svg>