<svg width="96" height="96" xmlns="http://www.w3.org/2000/svg" xmlns:xlink="http://www.w3.org/1999/xlink" xml:space="preserve" overflow="hidden"><g transform="translate(-329 -175)"><path d="M405 242.1 384.8 221.91 402.6 215.5C403.514 215.186 404 214.19 403.686 213.276 403.511 212.766 403.11 212.365 402.6 212.19L351.31 195.09C351.126 195.029 350.934 194.999 350.74 195L350.74 195C349.779 195.021 349.017 195.816 349.038 196.777 349.042 196.955 349.073 197.131 349.13 197.3L366.19 248.64C366.512 249.551 367.512 250.029 368.423 249.707 368.922 249.531 369.314 249.139 369.49 248.64L375.91 230.82 396.09 251Z" stroke="#4EA72E" stroke-width="1.33333" fill="#FFFFFF"/></g></svg>